<?xml version="1.0" standalone="no"?>
<!DOCTYPE svg PUBLIC "-//W3C//DTD SVG 20010904//EN"
 "http://www.w3.org/TR/2001/REC-SVG-20010904/DTD/svg10.dtd">
<svg version="1.0" xmlns="http://www.w3.org/2000/svg"
 width="360.000000pt" height="360.000000pt" viewBox="0 0 360.000000 360.000000"
 preserveAspectRatio="xMidYMid meet">
<metadata>
Created by potrace 1.11, written by Peter Selinger 2001-2013
</metadata>
<g transform="translate(0.000000,360.000000) scale(0.100000,-0.100000)"
fill="#000000" stroke="none">
<path d="M1625 3444 c-218 -23 -389 -75 -582 -175 -485 -251 -823 -751 -879
-1298 -42 -411 69 -823 312 -1162 75 -104 235 -266 342 -346 424 -318 955
-409 1468 -252 167 51 389 170 530 284 84 68 236 228 298 314 209 291 318 625
318 976 1 172 -8 245 -48 413 -68 289 -221 559 -440 777 -167 166 -339 280
-546 363 -249 99 -510 135 -773 106z m365 -154 c447 -58 852 -328 1084 -723
78 -132 152 -319 172 -432 2 -16 7 -37 9 -45 15 -54 29 -199 29 -305 -1 -172
-22 -298 -80 -475 -200 -606 -772 -1024 -1399 -1022 -112 0 -226 10 -300 26
-83 18 -122 29 -201 57 -419 148 -749 476 -905 901 -30 81 -66 214 -73 269 -3
19 -8 57 -12 84 -9 65 -9 264 0 340 69 585 464 1078 1013 1261 118 40 223 62
333 71 41 3 76 6 77 7 7 5 180 -4 253 -14z"/>
<path d="M1740 2503 c-67 -9 -166 -38 -214 -64 -96 -52 -185 -169 -186 -244
l0 -30 98 1 c53 1 100 2 105 3 4 1 7 11 7 24 2 60 68 127 153 152 63 19 184
12 240 -13 82 -37 107 -89 107 -217 l0 -83 -47 -7 c-74 -10 -250 -53 -338 -81
-175 -56 -267 -118 -311 -211 -23 -48 -27 -71 -27 -139 0 -69 4 -91 27 -138
37 -76 119 -143 199 -163 150 -36 306 7 433 121 l61 55 6 -42 c4 -23 11 -59
17 -79 l11 -38 99 0 c55 0 100 3 100 8 0 7 -15 72 -27 117 -3 11 -6 176 -8
367 -3 382 -8 464 -34 523 -33 74 -106 125 -226 158 -57 16 -191 26 -245 20z
m308 -717 c-4 -92 -8 -112 -37 -170 -76 -154 -252 -231 -384 -167 -118 57
-123 210 -9 297 57 44 335 141 411 143 l24 1 -5 -104z"/>
</g>
</svg>
